<?xml version="1.0" encoding="UTF-8"?>
<!DOCTYPE svg PUBLIC "-//W3C//DTD SVG 1.1//EN" "http://www.w3.org/Graphics/SVG/1.1/DTD/svg11.dtd">
<svg xmlns="http://www.w3.org/2000/svg" xmlns:xlink="http://www.w3.org/1999/xlink" xml:space="preserve" width="6.82666in" height="6.82666in" style="shape-rendering:geometricPrecision; text-rendering:geometricPrecision; image-rendering:optimizeQuality; fill-rule:evenodd; clip-rule:evenodd" viewBox="0 0 6.82666 6.82666">
 <defs>
  <style type="text/css">
   <![CDATA[
    .fil2 {fill:none}
    .fil0 {fill:#1E88E5}
    .fil1 {fill:white}
   ]]>
  </style>
 </defs>
 <g id="Layer_x0020_1">
  
  <path class="fil0" d="M3.44243 0.884874c0.246122,0.268453 0.482421,0.546921 0.702138,0.837469 0.184654,0.244181 0.358374,0.49787 0.513213,0.762071 0.234327,0.399846 0.437362,0.843713 0.529661,1.3001 0.035811,0.177063 0.055126,0.358098 0.0507047,0.538854 -0.00384646,0.157087 -0.0257283,0.313409 -0.0696575,0.464409 -0.0786929,0.2705 -0.22374,0.508327 -0.430232,0.700118 -0.354661,0.329406 -0.846394,0.485406 -1.32502,0.485429 -0.478583,1.9685e-005 -0.970319,-0.155898 -1.32496,-0.485287 -0.20648,-0.191776 -0.351488,-0.429587 -0.430154,-0.700075 -0.0439134,-0.150996 -0.0657717,-0.307319 -0.0696024,-0.464398 -0.00440157,-0.180764 0.014937,-0.361799 0.0507677,-0.538862 0.0923504,-0.456413 0.295433,-0.900295 0.529799,-1.30015 0.154862,-0.26422 0.32861,-0.517929 0.513283,-0.762134 0.219744,-0.290571 0.456079,-0.569063 0.70222,-0.837543l0.0289213 -0.0315472 0.0289213 0.0315472z" style="fill: #1E88E5;"/>
  <path class="fil1" d="M3.1375 3.55728c-0.0526063,-0.057378 -0.117417,-0.0837008 -0.195059,-0.0837008 -0.0796142,0 -0.14574,0.0257835 -0.192748,0.0914134 -0.0505709,0.0706024 -0.07,0.152925 -0.07,0.238961 0,0.0902165 0.0141339,0.197118 0.0767244,0.26713 0.0505591,0.0565512 0.112193,0.0840079 0.188031,0.0840079 0.0771654,0 0.140059,-0.0286339 0.191957,-0.0856142 0.0625039,-0.0686339 0.0798307,-0.164547 0.0798307,-0.254472 0,-0.0895866 -0.0159646,-0.189264 -0.0787362,-0.257724z" style="fill: white;"/>
  <polygon class="fil1" points="3.73444,3.43359 2.94722,4.95038 3.0949,4.95038 3.87944,3.43359 " style="fill: white;"/>
  <path class="fil1" d="M3.87317 4.22888c-0.0797362,0 -0.146425,0.0253543 -0.193862,0.0909016 -0.0509646,0.0704252 -0.0698898,0.153594 -0.0698898,0.239472 0,0.0904921 0.014252,0.196551 0.0767953,0.266866 0.0503898,0.0566575 0.112157,0.0842638 0.187965,0.0842638 0.0775472,0 0.141102,-0.0281575 0.193256,-0.0855748 0.0624882,-0.0687835 0.0795354,-0.164843 0.0795354,-0.254843 0,-0.0893622 -0.0157638,-0.189067 -0.0784055,-0.257386 -0.0526929,-0.0574764 -0.117661,-0.0837008 -0.195394,-0.0837008z" style="fill: white;"/>
  <path class="fil0" d="M3.03027 3.70272c-0.0228425,-0.0249134 -0.0509882,-0.0363465 -0.0847008,-0.0363465 -0.0345709,0 -0.0632874,0.0111969 -0.0836969,0.0396969 -0.0219606,0.0306575 -0.0303976,0.0664055 -0.0303976,0.103764 0,0.0391732 0.0061378,0.0855945 0.033315,0.115996 0.0219567,0.0245551 0.0487205,0.0364803 0.0816496,0.0364803 0.0335079,0 0.0608189,-0.012437 0.0833543,-0.0371772 0.0271417,-0.0298031 0.0346654,-0.0714528 0.0346654,-0.1105 0,-0.0389016 -0.00693307,-0.082185 -0.034189,-0.111913z" style="fill: #1E88E5;"/>
  <path class="fil0" d="M3.96049 4.45801c-0.0228425,-0.0249134 -0.0509882,-0.0363465 -0.0847008,-0.0363465 -0.0345709,0 -0.0632874,0.0111969 -0.0836969,0.0396969 -0.0219606,0.0306575 -0.0303976,0.0664055 -0.0303976,0.103764 0,0.0391732 0.0061378,0.0855945 0.033315,0.115996 0.0219567,0.0245551 0.0487205,0.0364803 0.0816496,0.0364803 0.0335079,0 0.0608189,-0.012437 0.0833543,-0.0371772 0.0271417,-0.0298031 0.0346654,-0.0714528 0.0346654,-0.1105 0,-0.0389016 -0.00693307,-0.082185 -0.034189,-0.111913z" style="fill: #1E88E5;"/>
 </g>
 <rect class="fil2" width="6.82666" height="6.82666" style="fill: none;"/>

	
	<metadata>
		<rdf:RDF xmlns:rdf="http://www.w3.org/1999/02/22-rdf-syntax-ns#" xmlns:rdfs="http://www.w3.org/2000/01/rdf-schema#" xmlns:dc="http://purl.org/dc/elements/1.1/">
			<rdf:Description about="https://iconscout.com/legal#licenses" dc:title="Humidity, Forecast, Hydration, Precipitation, Temperature, Weather" dc:description="Humidity, Forecast, Hydration, Precipitation, Temperature, Weather" dc:publisher="Iconscout" dc:date="2016-12-14" dc:format="image/svg+xml" dc:language="en">
				<dc:creator>
					<rdf:Bag>
						<rdf:li>Design 0 Fire</rdf:li>
					</rdf:Bag>
				</dc:creator>
			</rdf:Description>
		</rdf:RDF>
    </metadata></svg>
